<?xml version="1.0" encoding="utf-8"?>
<!-- Generator: Adobe Illustrator 26.3.1, SVG Export Plug-In . SVG Version: 6.00 Build 0)  -->
<svg version="1.1" id="Capa_2_00000142150843384096428030000013017852186621390722_"
	 xmlns="http://www.w3.org/2000/svg" xmlns:xlink="http://www.w3.org/1999/xlink" x="0px" y="0px" viewBox="0 0 88.7 88.7"
	 style="enable-background:new 0 0 88.7 88.7;" xml:space="preserve">
<style type="text/css">
	.st0{fill:#404C5E;}
	.st1{fill:#F0832E;}
</style>
<g>
	<g id="XMLID_2395_">
		<g id="XMLID_2396_">
			<path id="XMLID_2402_" class="st0" d="M34.5,54.8L17,25.7c-3.7,5.4-5.8,12-5.8,19c0,3.5,0.5,6.9,1.5,10.1H34.5z"/>
			<path id="XMLID_2401_" class="st0" d="M41.9,30.2H76c-4.4-9.3-12.9-16.4-23.2-18.7L41.9,30.2z"/>
			<path id="XMLID_2400_" class="st0" d="M30.9,40.8l17.6-30c-1.1-0.1-2.2-0.2-3.3-0.2c-10.2,0-19.3,4.5-25.5,11.6L30.9,40.8z"/>
			<path id="XMLID_2399_" class="st0" d="M38,77.7l10.8-18.8H14.2c4.5,9.9,13.6,17.2,24.6,19.3L38,77.7z"/>
			<path id="XMLID_2398_" class="st0" d="M55.9,34.4l17.2,29.9c3.9-5.5,6.2-12.3,6.2-19.6c0-3.6-0.6-7.1-1.6-10.3L55.9,34.4z"/>
			<path id="XMLID_2397_" class="st0" d="M59.4,48.7L42.2,78.6c1,0.1,2,0.1,3,0.1c9.9,0,18.9-4.3,25.1-11.1L59.4,48.7z"/>
		</g>
	</g>
	<g id="XMLID_2393_">
		<path class="st0" d="M44.3,6c21.1,0,38.3,17.2,38.3,38.3S65.5,82.7,44.3,82.7S6,65.5,6,44.3S23.2,6,44.3,6 M44.3,0
			C19.9,0,0,19.9,0,44.3s19.9,44.3,44.3,44.3s44.3-19.9,44.3-44.3S68.8,0,44.3,0L44.3,0z"/>
	</g>
	<path class="st1" d="M43,73.4c2.3,2.9,4.6,5.8,7,8.8c-0.9,1.7-2.3,2.7-4,3.5c-0.1,0.1-0.3,0-0.4-0.1c-2.8-2.1-5.6-4.2-8.4-6.4
		c-1.6-1.2-2.7-2.9-3.9-4.5c-1.4-1.9-2.9-3.8-4.3-5.8c-0.1-0.2-0.2-0.5-0.1-0.7c0.6-1.3,1.5-2.5,2.6-3.5c0.3-0.3,0.6-0.4,1-0.1
		c1.7,1.3,3.3,2.6,5,3.9c1.2,0.9,2.4,1.8,3.6,2.8c0.2-0.3,0.4-0.5,0.5-0.7c3.4-4.5,6.7-9,10.1-13.4c0.3-0.4,0.3-0.6,0-1
		c-4.3-6-8.7-12.1-13-18.1c-1.3-1.8-2.6-3.6-3.9-5.4c-0.2-0.3-0.2-0.5-0.1-0.8c0.8-1.2,1.5-2.5,2.2-3.8c0-0.1,0.1-0.1,0.1-0.2
		c1.4-1.8,2.5-2,4.2-0.7c2.1,1.7,4.1,3.5,6.1,5.3c3.4,3.1,6.8,6.1,10.2,9.2c1.6,1.4,3.3,2.4,5.4,3c0.4,0.1,0.6,0.1,0.9-0.3
		c1.9-2,4.1-3.6,6.5-5c0.3-0.2,0.7-0.3,1-0.4c0.2-0.1,0.5-0.1,0.6,0c0.5,0.4,1,0.2,1.4,0c0.6-0.2,1.2-0.5,1.8-0.7
		c0.7-0.2,1,0.1,0.8,0.8c-0.2,0.6-0.5,1.2-0.7,1.9c-0.2,0.4-0.3,0.8,0.2,1.2c0.1,0.1,0.1,0.3,0.1,0.5c-0.2,0.6-0.4,1.2-0.8,1.7
		c-1.3,1.8-2.7,3.5-4,5.2c-1.3,1.8-1.5,1.2-0.3,3.4c1.4,2.6,3.3,4.9,5.2,7.1c3.2,3.5,6.5,7,9.7,10.6c0.8,0.9,1.5,1.7,2.2,2.7
		c1,1.4,0.8,2.4-0.5,3.4c-1.1,0.8-2.3,1.6-3.5,2.3c-0.7,0.5-1.5,0.4-2.2,0c-0.6-0.3-1.1-0.7-1.7-1.1c-7-5-14.1-10.1-21.1-15.2
		c-0.6-0.4-1-0.4-1.5,0c-4.5,3.4-9,6.8-13.6,10.2C43.3,73.2,43.2,73.3,43,73.4z"/>
</g>
</svg>
