<?xml version="1.0" encoding="UTF-8" standalone="no"?>
<!-- Created with Inkscape (http://www.inkscape.org/) -->

<svg
   width="135.46666mm"
   height="135.46666mm"
   viewBox="0 0 135.46666 135.46666"
   version="1.1"
   id="svg1"
   sodipodi:docname="logoPD_Fototeca.svg"
   inkscape:version="1.3.2 (091e20e, 2023-11-25, custom)"
   xmlns:inkscape="http://www.inkscape.org/namespaces/inkscape"
   xmlns:sodipodi="http://sodipodi.sourceforge.net/DTD/sodipodi-0.dtd"
   xmlns="http://www.w3.org/2000/svg"
   xmlns:svg="http://www.w3.org/2000/svg">
  <sodipodi:namedview
     id="namedview1"
     pagecolor="#ffffff"
     bordercolor="#999999"
     borderopacity="1"
     inkscape:showpageshadow="2"
     inkscape:pageopacity="0"
     inkscape:pagecheckerboard="0"
     inkscape:deskcolor="#d1d1d1"
     inkscape:document-units="mm"
     inkscape:zoom="0.59468255"
     inkscape:cx="407.78059"
     inkscape:cy="271.57346"
     inkscape:window-width="1711"
     inkscape:window-height="1041"
     inkscape:window-x="2059"
     inkscape:window-y="0"
     inkscape:window-maximized="0"
     inkscape:current-layer="layer1" />
  <defs
     id="defs1">
    <linearGradient
       id="linearGradient138">
      <stop
         style="stop-color:#30d4e8;stop-opacity:1;"
         offset="0"
         id="stop137" />
      <stop
         style="stop-color:#183d68;stop-opacity:1;"
         offset="1"
         id="stop138" />
    </linearGradient>
    <linearGradient
       id="linearGradient126">
      <stop
         style="stop-color:#30d4e8;stop-opacity:1;"
         offset="0"
         id="stop130" />
      <stop
         style="stop-color:#26005a;stop-opacity:1;"
         offset="1"
         id="stop131" />
    </linearGradient>
    <linearGradient
       id="linearGradient126-1">
      <stop
         style="stop-color:#30d4e8;stop-opacity:1;"
         offset="0"
         id="stop126" />
      <stop
         style="stop-color:#26005a;stop-opacity:1;"
         offset="1"
         id="stop127" />
    </linearGradient>
    <filter
       style="color-interpolation-filters:sRGB"
       inkscape:label="Drop Shadow"
       id="filter82"
       x="-0.055396318"
       y="-0.055396132"
       width="1.0944996"
       height="1.0944993">
      <feFlood
         result="flood"
         in="SourceGraphic"
         flood-opacity="0.498039"
         flood-color="rgb(0,0,0)"
         id="feFlood80" />
      <feGaussianBlur
         result="blur"
         in="SourceGraphic"
         stdDeviation="1.000000"
         id="feGaussianBlur80" />
      <feOffset
         result="offset"
         in="blur"
         dx="-1.000000"
         dy="-1.000000"
         id="feOffset80" />
      <feComposite
         result="comp1"
         operator="in"
         in="flood"
         in2="offset"
         id="feComposite81" />
      <feComposite
         result="comp2"
         operator="over"
         in="SourceGraphic"
         in2="comp1"
         id="feComposite82" />
    </filter>
    <clipPath
       clipPathUnits="userSpaceOnUse"
       id="clipPath494">
      <path
         d="M 0,1937.121 H 2619.516 V 0 H 0 Z"
         transform="translate(-1301.3385,-1569.316)"
         id="path494" />
    </clipPath>
    <clipPath
       clipPathUnits="userSpaceOnUse"
       id="clipPath496">
      <path
         d="M 0,1937.121 H 2619.516 V 0 H 0 Z"
         transform="translate(-1324.299,-1645.6942)"
         id="path496" />
    </clipPath>
    <clipPath
       clipPathUnits="userSpaceOnUse"
       id="clipPath498">
      <path
         d="M 0,1937.121 H 2619.516 V 0 H 0 Z"
         transform="translate(-1290.1041,-1612.8251)"
         id="path498" />
    </clipPath>
    <clipPath
       clipPathUnits="userSpaceOnUse"
       id="clipPath500">
      <path
         d="M 0,1937.121 H 2619.516 V 0 H 0 Z"
         transform="translate(-1312.2435,-1497.8516)"
         id="path500" />
    </clipPath>
    <clipPath
       clipPathUnits="userSpaceOnUse"
       id="clipPath502">
      <path
         d="M 0,1937.121 H 2619.516 V 0 H 0 Z"
         transform="translate(-1367.8893,-1632.8647)"
         id="path502" />
    </clipPath>
    <clipPath
       clipPathUnits="userSpaceOnUse"
       id="clipPath504">
      <path
         d="M 0,1937.121 H 2619.516 V 0 H 0 Z"
         transform="translate(-1378.8286,-1588.1797)"
         id="path504" />
    </clipPath>
    <clipPath
       clipPathUnits="userSpaceOnUse"
       id="clipPath506">
      <path
         d="M 0,1937.121 H 2619.516 V 0 H 0 Z"
         transform="translate(-1331.8312,-1751.8124)"
         id="path506" />
    </clipPath>
    <clipPath
       clipPathUnits="userSpaceOnUse"
       id="clipPath508">
      <path
         d="M 0,1937.121 H 2619.516 V 0 H 0 Z"
         transform="translate(-1327.3992,-1503.5074)"
         id="path508" />
    </clipPath>
    <clipPath
       clipPathUnits="userSpaceOnUse"
       id="clipPath494-7">
      <path
         d="M 0,1937.121 H 2619.516 V 0 H 0 Z"
         transform="translate(-1301.3385,-1569.316)"
         id="path494-1" />
    </clipPath>
    <clipPath
       clipPathUnits="userSpaceOnUse"
       id="clipPath496-7">
      <path
         d="M 0,1937.121 H 2619.516 V 0 H 0 Z"
         transform="translate(-1324.299,-1645.6942)"
         id="path496-0" />
    </clipPath>
    <clipPath
       clipPathUnits="userSpaceOnUse"
       id="clipPath498-7">
      <path
         d="M 0,1937.121 H 2619.516 V 0 H 0 Z"
         transform="translate(-1290.1041,-1612.8251)"
         id="path498-0" />
    </clipPath>
    <clipPath
       clipPathUnits="userSpaceOnUse"
       id="clipPath500-6">
      <path
         d="M 0,1937.121 H 2619.516 V 0 H 0 Z"
         transform="translate(-1312.2435,-1497.8516)"
         id="path500-2" />
    </clipPath>
    <clipPath
       clipPathUnits="userSpaceOnUse"
       id="clipPath502-8">
      <path
         d="M 0,1937.121 H 2619.516 V 0 H 0 Z"
         transform="translate(-1367.8893,-1632.8647)"
         id="path502-3" />
    </clipPath>
    <clipPath
       clipPathUnits="userSpaceOnUse"
       id="clipPath504-4">
      <path
         d="M 0,1937.121 H 2619.516 V 0 H 0 Z"
         transform="translate(-1378.8286,-1588.1797)"
         id="path504-3" />
    </clipPath>
    <clipPath
       clipPathUnits="userSpaceOnUse"
       id="clipPath506-6">
      <path
         d="M 0,1937.121 H 2619.516 V 0 H 0 Z"
         transform="translate(-1331.8312,-1751.8124)"
         id="path506-7" />
    </clipPath>
    <clipPath
       clipPathUnits="userSpaceOnUse"
       id="clipPath508-1">
      <path
         d="M 0,1937.121 H 2619.516 V 0 H 0 Z"
         transform="translate(-1327.3992,-1503.5074)"
         id="path508-4" />
    </clipPath>
    <clipPath
       clipPathUnits="userSpaceOnUse"
       id="clipPath494-7-3">
      <path
         d="M 0,1937.121 H 2619.516 V 0 H 0 Z"
         transform="translate(-1301.3385,-1569.316)"
         id="path494-1-9" />
    </clipPath>
    <clipPath
       clipPathUnits="userSpaceOnUse"
       id="clipPath496-7-7">
      <path
         d="M 0,1937.121 H 2619.516 V 0 H 0 Z"
         transform="translate(-1324.299,-1645.6942)"
         id="path496-0-5" />
    </clipPath>
    <clipPath
       clipPathUnits="userSpaceOnUse"
       id="clipPath498-7-5">
      <path
         d="M 0,1937.121 H 2619.516 V 0 H 0 Z"
         transform="translate(-1290.1041,-1612.8251)"
         id="path498-0-7" />
    </clipPath>
    <clipPath
       clipPathUnits="userSpaceOnUse"
       id="clipPath500-6-0">
      <path
         d="M 0,1937.121 H 2619.516 V 0 H 0 Z"
         transform="translate(-1312.2435,-1497.8516)"
         id="path500-2-3" />
    </clipPath>
    <clipPath
       clipPathUnits="userSpaceOnUse"
       id="clipPath502-8-2">
      <path
         d="M 0,1937.121 H 2619.516 V 0 H 0 Z"
         transform="translate(-1367.8893,-1632.8647)"
         id="path502-3-5" />
    </clipPath>
    <clipPath
       clipPathUnits="userSpaceOnUse"
       id="clipPath504-4-9">
      <path
         d="M 0,1937.121 H 2619.516 V 0 H 0 Z"
         transform="translate(-1378.8286,-1588.1797)"
         id="path504-3-1" />
    </clipPath>
    <clipPath
       clipPathUnits="userSpaceOnUse"
       id="clipPath506-6-0">
      <path
         d="M 0,1937.121 H 2619.516 V 0 H 0 Z"
         transform="translate(-1331.8312,-1751.8124)"
         id="path506-7-1" />
    </clipPath>
    <clipPath
       clipPathUnits="userSpaceOnUse"
       id="clipPath494-7-8">
      <path
         d="M 0,1937.121 H 2619.516 V 0 H 0 Z"
         transform="translate(-1301.3385,-1569.316)"
         id="path494-1-1" />
    </clipPath>
    <clipPath
       clipPathUnits="userSpaceOnUse"
       id="clipPath496-7-0">
      <path
         d="M 0,1937.121 H 2619.516 V 0 H 0 Z"
         transform="translate(-1324.299,-1645.6942)"
         id="path496-0-2" />
    </clipPath>
    <clipPath
       clipPathUnits="userSpaceOnUse"
       id="clipPath498-7-8">
      <path
         d="M 0,1937.121 H 2619.516 V 0 H 0 Z"
         transform="translate(-1290.1041,-1612.8251)"
         id="path498-0-2" />
    </clipPath>
    <clipPath
       clipPathUnits="userSpaceOnUse"
       id="clipPath500-6-3">
      <path
         d="M 0,1937.121 H 2619.516 V 0 H 0 Z"
         transform="translate(-1312.2435,-1497.8516)"
         id="path500-2-0" />
    </clipPath>
    <clipPath
       clipPathUnits="userSpaceOnUse"
       id="clipPath502-8-22">
      <path
         d="M 0,1937.121 H 2619.516 V 0 H 0 Z"
         transform="translate(-1367.8893,-1632.8647)"
         id="path502-3-0" />
    </clipPath>
    <clipPath
       clipPathUnits="userSpaceOnUse"
       id="clipPath504-4-0">
      <path
         d="M 0,1937.121 H 2619.516 V 0 H 0 Z"
         transform="translate(-1378.8286,-1588.1797)"
         id="path504-3-0" />
    </clipPath>
    <clipPath
       clipPathUnits="userSpaceOnUse"
       id="clipPath506-6-2">
      <path
         d="M 0,1937.121 H 2619.516 V 0 H 0 Z"
         transform="translate(-1331.8312,-1751.8124)"
         id="path506-7-0" />
    </clipPath>
    <clipPath
       clipPathUnits="userSpaceOnUse"
       id="clipPath508-1-4">
      <path
         d="M 0,1937.121 H 2619.516 V 0 H 0 Z"
         transform="translate(-1327.3992,-1503.5074)"
         id="path508-4-4" />
    </clipPath>
    <clipPath
       clipPathUnits="userSpaceOnUse"
       id="clipPath494-7-8-5">
      <path
         d="M 0,1937.121 H 2619.516 V 0 H 0 Z"
         transform="translate(-1301.3385,-1569.316)"
         id="path494-1-1-9" />
    </clipPath>
    <clipPath
       clipPathUnits="userSpaceOnUse"
       id="clipPath496-7-0-5">
      <path
         d="M 0,1937.121 H 2619.516 V 0 H 0 Z"
         transform="translate(-1324.299,-1645.6942)"
         id="path496-0-2-3" />
    </clipPath>
    <clipPath
       clipPathUnits="userSpaceOnUse"
       id="clipPath498-7-8-4">
      <path
         d="M 0,1937.121 H 2619.516 V 0 H 0 Z"
         transform="translate(-1290.1041,-1612.8251)"
         id="path498-0-2-7" />
    </clipPath>
    <clipPath
       clipPathUnits="userSpaceOnUse"
       id="clipPath500-6-3-4">
      <path
         d="M 0,1937.121 H 2619.516 V 0 H 0 Z"
         transform="translate(-1312.2435,-1497.8516)"
         id="path500-2-0-3" />
    </clipPath>
    <clipPath
       clipPathUnits="userSpaceOnUse"
       id="clipPath502-8-22-2">
      <path
         d="M 0,1937.121 H 2619.516 V 0 H 0 Z"
         transform="translate(-1367.8893,-1632.8647)"
         id="path502-3-0-5" />
    </clipPath>
    <clipPath
       clipPathUnits="userSpaceOnUse"
       id="clipPath504-4-0-2">
      <path
         d="M 0,1937.121 H 2619.516 V 0 H 0 Z"
         transform="translate(-1378.8286,-1588.1797)"
         id="path504-3-0-7" />
    </clipPath>
    <clipPath
       clipPathUnits="userSpaceOnUse"
       id="clipPath506-6-2-0">
      <path
         d="M 0,1937.121 H 2619.516 V 0 H 0 Z"
         transform="translate(-1331.8312,-1751.8124)"
         id="path506-7-0-5" />
    </clipPath>
    <clipPath
       clipPathUnits="userSpaceOnUse"
       id="clipPath508-1-4-0">
      <path
         d="M 0,1937.121 H 2619.516 V 0 H 0 Z"
         transform="translate(-1327.3992,-1503.5074)"
         id="path508-4-4-4" />
    </clipPath>
    <clipPath
       clipPathUnits="userSpaceOnUse"
       id="clipPath494-7-8-5-9">
      <path
         d="M 0,1937.121 H 2619.516 V 0 H 0 Z"
         transform="translate(-1301.3385,-1569.316)"
         id="path494-1-1-9-6" />
    </clipPath>
    <clipPath
       clipPathUnits="userSpaceOnUse"
       id="clipPath496-7-0-5-0">
      <path
         d="M 0,1937.121 H 2619.516 V 0 H 0 Z"
         transform="translate(-1324.299,-1645.6942)"
         id="path496-0-2-3-9" />
    </clipPath>
    <clipPath
       clipPathUnits="userSpaceOnUse"
       id="clipPath498-7-8-4-4">
      <path
         d="M 0,1937.121 H 2619.516 V 0 H 0 Z"
         transform="translate(-1290.1041,-1612.8251)"
         id="path498-0-2-7-1" />
    </clipPath>
    <clipPath
       clipPathUnits="userSpaceOnUse"
       id="clipPath500-6-3-4-3">
      <path
         d="M 0,1937.121 H 2619.516 V 0 H 0 Z"
         transform="translate(-1312.2435,-1497.8516)"
         id="path500-2-0-3-2" />
    </clipPath>
    <clipPath
       clipPathUnits="userSpaceOnUse"
       id="clipPath502-8-22-2-1">
      <path
         d="M 0,1937.121 H 2619.516 V 0 H 0 Z"
         transform="translate(-1367.8893,-1632.8647)"
         id="path502-3-0-5-7" />
    </clipPath>
    <clipPath
       clipPathUnits="userSpaceOnUse"
       id="clipPath504-4-0-2-4">
      <path
         d="M 0,1937.121 H 2619.516 V 0 H 0 Z"
         transform="translate(-1378.8286,-1588.1797)"
         id="path504-3-0-7-2" />
    </clipPath>
    <clipPath
       clipPathUnits="userSpaceOnUse"
       id="clipPath506-6-2-0-4">
      <path
         d="M 0,1937.121 H 2619.516 V 0 H 0 Z"
         transform="translate(-1331.8312,-1751.8124)"
         id="path506-7-0-5-6" />
    </clipPath>
    <clipPath
       clipPathUnits="userSpaceOnUse"
       id="clipPath508-1-4-0-7">
      <path
         d="M 0,1937.121 H 2619.516 V 0 H 0 Z"
         transform="translate(-1327.3992,-1503.5074)"
         id="path508-4-4-4-2" />
    </clipPath>
    <clipPath
       clipPathUnits="userSpaceOnUse"
       id="clipPath494-7-8-5-5">
      <path
         d="M 0,1937.121 H 2619.516 V 0 H 0 Z"
         transform="translate(-1301.3385,-1569.316)"
         id="path494-1-1-9-3" />
    </clipPath>
    <clipPath
       clipPathUnits="userSpaceOnUse"
       id="clipPath496-7-0-5-1">
      <path
         d="M 0,1937.121 H 2619.516 V 0 H 0 Z"
         transform="translate(-1324.299,-1645.6942)"
         id="path496-0-2-3-2" />
    </clipPath>
    <clipPath
       clipPathUnits="userSpaceOnUse"
       id="clipPath498-7-8-4-7">
      <path
         d="M 0,1937.121 H 2619.516 V 0 H 0 Z"
         transform="translate(-1290.1041,-1612.8251)"
         id="path498-0-2-7-9" />
    </clipPath>
    <clipPath
       clipPathUnits="userSpaceOnUse"
       id="clipPath500-6-3-4-4">
      <path
         d="M 0,1937.121 H 2619.516 V 0 H 0 Z"
         transform="translate(-1312.2435,-1497.8516)"
         id="path500-2-0-3-26" />
    </clipPath>
    <clipPath
       clipPathUnits="userSpaceOnUse"
       id="clipPath502-8-22-2-5">
      <path
         d="M 0,1937.121 H 2619.516 V 0 H 0 Z"
         transform="translate(-1367.8893,-1632.8647)"
         id="path502-3-0-5-9" />
    </clipPath>
    <clipPath
       clipPathUnits="userSpaceOnUse"
       id="clipPath504-4-0-2-3">
      <path
         d="M 0,1937.121 H 2619.516 V 0 H 0 Z"
         transform="translate(-1378.8286,-1588.1797)"
         id="path504-3-0-7-1" />
    </clipPath>
    <clipPath
       clipPathUnits="userSpaceOnUse"
       id="clipPath506-6-2-0-2">
      <path
         d="M 0,1937.121 H 2619.516 V 0 H 0 Z"
         transform="translate(-1331.8312,-1751.8124)"
         id="path506-7-0-5-9" />
    </clipPath>
    <clipPath
       clipPathUnits="userSpaceOnUse"
       id="clipPath508-1-4-0-1">
      <path
         d="M 0,1937.121 H 2619.516 V 0 H 0 Z"
         transform="translate(-1327.3992,-1503.5074)"
         id="path508-4-4-4-6" />
    </clipPath>
    <clipPath
       clipPathUnits="userSpaceOnUse"
       id="clipPath494-7-8-5-0">
      <path
         d="M 0,1937.121 H 2619.516 V 0 H 0 Z"
         transform="translate(-1301.3385,-1569.316)"
         id="path494-1-1-9-62" />
    </clipPath>
    <clipPath
       clipPathUnits="userSpaceOnUse"
       id="clipPath496-7-0-5-05">
      <path
         d="M 0,1937.121 H 2619.516 V 0 H 0 Z"
         transform="translate(-1324.299,-1645.6942)"
         id="path496-0-2-3-4" />
    </clipPath>
    <clipPath
       clipPathUnits="userSpaceOnUse"
       id="clipPath498-7-8-4-0">
      <path
         d="M 0,1937.121 H 2619.516 V 0 H 0 Z"
         transform="translate(-1290.1041,-1612.8251)"
         id="path498-0-2-7-8" />
    </clipPath>
    <clipPath
       clipPathUnits="userSpaceOnUse"
       id="clipPath500-6-3-4-35">
      <path
         d="M 0,1937.121 H 2619.516 V 0 H 0 Z"
         transform="translate(-1312.2435,-1497.8516)"
         id="path500-2-0-3-8" />
    </clipPath>
    <clipPath
       clipPathUnits="userSpaceOnUse"
       id="clipPath502-8-22-2-3">
      <path
         d="M 0,1937.121 H 2619.516 V 0 H 0 Z"
         transform="translate(-1367.8893,-1632.8647)"
         id="path502-3-0-5-3" />
    </clipPath>
    <clipPath
       clipPathUnits="userSpaceOnUse"
       id="clipPath504-4-0-2-1">
      <path
         d="M 0,1937.121 H 2619.516 V 0 H 0 Z"
         transform="translate(-1378.8286,-1588.1797)"
         id="path504-3-0-7-5" />
    </clipPath>
    <clipPath
       clipPathUnits="userSpaceOnUse"
       id="clipPath506-6-2-0-44">
      <path
         d="M 0,1937.121 H 2619.516 V 0 H 0 Z"
         transform="translate(-1331.8312,-1751.8124)"
         id="path506-7-0-5-1" />
    </clipPath>
    <clipPath
       clipPathUnits="userSpaceOnUse"
       id="clipPath508-1-4-0-5">
      <path
         d="M 0,1937.121 H 2619.516 V 0 H 0 Z"
         transform="translate(-1327.3992,-1503.5074)"
         id="path508-4-4-4-3" />
    </clipPath>
    <clipPath
       clipPathUnits="userSpaceOnUse"
       id="clipPath494-7-8-5-0-7">
      <path
         d="M 0,1937.121 H 2619.516 V 0 H 0 Z"
         transform="translate(-1301.3385,-1569.316)"
         id="path494-1-1-9-62-8" />
    </clipPath>
    <clipPath
       clipPathUnits="userSpaceOnUse"
       id="clipPath496-7-0-5-05-8">
      <path
         d="M 0,1937.121 H 2619.516 V 0 H 0 Z"
         transform="translate(-1324.299,-1645.6942)"
         id="path496-0-2-3-4-9" />
    </clipPath>
    <clipPath
       clipPathUnits="userSpaceOnUse"
       id="clipPath498-7-8-4-0-5">
      <path
         d="M 0,1937.121 H 2619.516 V 0 H 0 Z"
         transform="translate(-1290.1041,-1612.8251)"
         id="path498-0-2-7-8-8" />
    </clipPath>
    <clipPath
       clipPathUnits="userSpaceOnUse"
       id="clipPath500-6-3-4-35-9">
      <path
         d="M 0,1937.121 H 2619.516 V 0 H 0 Z"
         transform="translate(-1312.2435,-1497.8516)"
         id="path500-2-0-3-8-2" />
    </clipPath>
    <clipPath
       clipPathUnits="userSpaceOnUse"
       id="clipPath502-8-22-2-3-9">
      <path
         d="M 0,1937.121 H 2619.516 V 0 H 0 Z"
         transform="translate(-1367.8893,-1632.8647)"
         id="path502-3-0-5-3-1" />
    </clipPath>
    <clipPath
       clipPathUnits="userSpaceOnUse"
       id="clipPath504-4-0-2-1-9">
      <path
         d="M 0,1937.121 H 2619.516 V 0 H 0 Z"
         transform="translate(-1378.8286,-1588.1797)"
         id="path504-3-0-7-5-6" />
    </clipPath>
    <clipPath
       clipPathUnits="userSpaceOnUse"
       id="clipPath506-6-2-0-44-4">
      <path
         d="M 0,1937.121 H 2619.516 V 0 H 0 Z"
         transform="translate(-1331.8312,-1751.8124)"
         id="path506-7-0-5-1-1" />
    </clipPath>
    <clipPath
       clipPathUnits="userSpaceOnUse"
       id="clipPath508-1-4-0-5-3">
      <path
         d="M 0,1937.121 H 2619.516 V 0 H 0 Z"
         transform="translate(-1327.3992,-1503.5074)"
         id="path508-4-4-4-3-7" />
    </clipPath>
    <clipPath
       clipPathUnits="userSpaceOnUse"
       id="clipPath494-7-8-5-0-7-1">
      <path
         d="M 0,1937.121 H 2619.516 V 0 H 0 Z"
         transform="translate(-1301.3385,-1569.316)"
         id="path494-1-1-9-62-8-8" />
    </clipPath>
    <clipPath
       clipPathUnits="userSpaceOnUse"
       id="clipPath496-7-0-5-05-8-0">
      <path
         d="M 0,1937.121 H 2619.516 V 0 H 0 Z"
         transform="translate(-1324.299,-1645.6942)"
         id="path496-0-2-3-4-9-6" />
    </clipPath>
    <clipPath
       clipPathUnits="userSpaceOnUse"
       id="clipPath498-7-8-4-0-5-8">
      <path
         d="M 0,1937.121 H 2619.516 V 0 H 0 Z"
         transform="translate(-1290.1041,-1612.8251)"
         id="path498-0-2-7-8-8-9" />
    </clipPath>
    <clipPath
       clipPathUnits="userSpaceOnUse"
       id="clipPath500-6-3-4-35-9-7">
      <path
         d="M 0,1937.121 H 2619.516 V 0 H 0 Z"
         transform="translate(-1312.2435,-1497.8516)"
         id="path500-2-0-3-8-2-1" />
    </clipPath>
    <clipPath
       clipPathUnits="userSpaceOnUse"
       id="clipPath502-8-22-2-3-9-2">
      <path
         d="M 0,1937.121 H 2619.516 V 0 H 0 Z"
         transform="translate(-1367.8893,-1632.8647)"
         id="path502-3-0-5-3-1-2" />
    </clipPath>
    <clipPath
       clipPathUnits="userSpaceOnUse"
       id="clipPath504-4-0-2-1-9-6">
      <path
         d="M 0,1937.121 H 2619.516 V 0 H 0 Z"
         transform="translate(-1378.8286,-1588.1797)"
         id="path504-3-0-7-5-6-9" />
    </clipPath>
    <clipPath
       clipPathUnits="userSpaceOnUse"
       id="clipPath506-6-2-0-44-4-0">
      <path
         d="M 0,1937.121 H 2619.516 V 0 H 0 Z"
         transform="translate(-1331.8312,-1751.8124)"
         id="path506-7-0-5-1-1-0" />
    </clipPath>
    <clipPath
       clipPathUnits="userSpaceOnUse"
       id="clipPath508-1-4-0-5-3-3">
      <path
         d="M 0,1937.121 H 2619.516 V 0 H 0 Z"
         transform="translate(-1327.3992,-1503.5074)"
         id="path508-4-4-4-3-7-8" />
    </clipPath>
    <clipPath
       clipPathUnits="userSpaceOnUse"
       id="clipPath494-7-8-5-0-7-1-9">
      <path
         d="M 0,1937.121 H 2619.516 V 0 H 0 Z"
         transform="translate(-1301.3385,-1569.316)"
         id="path494-1-1-9-62-8-8-8" />
    </clipPath>
    <clipPath
       clipPathUnits="userSpaceOnUse"
       id="clipPath496-7-0-5-05-8-0-1">
      <path
         d="M 0,1937.121 H 2619.516 V 0 H 0 Z"
         transform="translate(-1324.299,-1645.6942)"
         id="path496-0-2-3-4-9-6-4" />
    </clipPath>
    <clipPath
       clipPathUnits="userSpaceOnUse"
       id="clipPath498-7-8-4-0-5-8-9">
      <path
         d="M 0,1937.121 H 2619.516 V 0 H 0 Z"
         transform="translate(-1290.1041,-1612.8251)"
         id="path498-0-2-7-8-8-9-5" />
    </clipPath>
    <clipPath
       clipPathUnits="userSpaceOnUse"
       id="clipPath500-6-3-4-35-9-7-3">
      <path
         d="M 0,1937.121 H 2619.516 V 0 H 0 Z"
         transform="translate(-1312.2435,-1497.8516)"
         id="path500-2-0-3-8-2-1-9" />
    </clipPath>
    <clipPath
       clipPathUnits="userSpaceOnUse"
       id="clipPath502-8-22-2-3-9-2-0">
      <path
         d="M 0,1937.121 H 2619.516 V 0 H 0 Z"
         transform="translate(-1367.8893,-1632.8647)"
         id="path502-3-0-5-3-1-2-8" />
    </clipPath>
    <clipPath
       clipPathUnits="userSpaceOnUse"
       id="clipPath504-4-0-2-1-9-6-7">
      <path
         d="M 0,1937.121 H 2619.516 V 0 H 0 Z"
         transform="translate(-1378.8286,-1588.1797)"
         id="path504-3-0-7-5-6-9-4" />
    </clipPath>
    <clipPath
       clipPathUnits="userSpaceOnUse"
       id="clipPath506-6-2-0-44-4-0-4">
      <path
         d="M 0,1937.121 H 2619.516 V 0 H 0 Z"
         transform="translate(-1331.8312,-1751.8124)"
         id="path506-7-0-5-1-1-0-1" />
    </clipPath>
    <clipPath
       clipPathUnits="userSpaceOnUse"
       id="clipPath508-1-4-0-5-3-3-4">
      <path
         d="M 0,1937.121 H 2619.516 V 0 H 0 Z"
         transform="translate(-1327.3992,-1503.5074)"
         id="path508-4-4-4-3-7-8-6" />
    </clipPath>
    <clipPath
       clipPathUnits="userSpaceOnUse"
       id="clipPath494-7-8-5-0-3">
      <path
         d="M 0,1937.121 H 2619.516 V 0 H 0 Z"
         transform="translate(-1301.3385,-1569.316)"
         id="path494-1-1-9-62-9" />
    </clipPath>
    <clipPath
       clipPathUnits="userSpaceOnUse"
       id="clipPath496-7-0-5-05-5">
      <path
         d="M 0,1937.121 H 2619.516 V 0 H 0 Z"
         transform="translate(-1324.299,-1645.6942)"
         id="path496-0-2-3-4-0" />
    </clipPath>
    <clipPath
       clipPathUnits="userSpaceOnUse"
       id="clipPath498-7-8-4-0-2">
      <path
         d="M 0,1937.121 H 2619.516 V 0 H 0 Z"
         transform="translate(-1290.1041,-1612.8251)"
         id="path498-0-2-7-8-7" />
    </clipPath>
    <clipPath
       clipPathUnits="userSpaceOnUse"
       id="clipPath500-6-3-4-35-4">
      <path
         d="M 0,1937.121 H 2619.516 V 0 H 0 Z"
         transform="translate(-1312.2435,-1497.8516)"
         id="path500-2-0-3-8-9" />
    </clipPath>
    <clipPath
       clipPathUnits="userSpaceOnUse"
       id="clipPath502-8-22-2-3-5">
      <path
         d="M 0,1937.121 H 2619.516 V 0 H 0 Z"
         transform="translate(-1367.8893,-1632.8647)"
         id="path502-3-0-5-3-7" />
    </clipPath>
    <clipPath
       clipPathUnits="userSpaceOnUse"
       id="clipPath504-4-0-2-1-4">
      <path
         d="M 0,1937.121 H 2619.516 V 0 H 0 Z"
         transform="translate(-1378.8286,-1588.1797)"
         id="path504-3-0-7-5-1" />
    </clipPath>
    <clipPath
       clipPathUnits="userSpaceOnUse"
       id="clipPath506-6-2-0-44-0">
      <path
         d="M 0,1937.121 H 2619.516 V 0 H 0 Z"
         transform="translate(-1331.8312,-1751.8124)"
         id="path506-7-0-5-1-3" />
    </clipPath>
    <clipPath
       clipPathUnits="userSpaceOnUse"
       id="clipPath508-1-4-0-5-5">
      <path
         d="M 0,1937.121 H 2619.516 V 0 H 0 Z"
         transform="translate(-1327.3992,-1503.5074)"
         id="path508-4-4-4-3-4" />
    </clipPath>
    <clipPath
       clipPathUnits="userSpaceOnUse"
       id="clipPath494-7-8-5-0-7-1-9-6">
      <path
         d="M 0,1937.121 H 2619.516 V 0 H 0 Z"
         transform="translate(-1301.3385,-1569.316)"
         id="path494-1-1-9-62-8-8-8-0" />
    </clipPath>
    <clipPath
       clipPathUnits="userSpaceOnUse"
       id="clipPath496-7-0-5-05-8-0-1-3">
      <path
         d="M 0,1937.121 H 2619.516 V 0 H 0 Z"
         transform="translate(-1324.299,-1645.6942)"
         id="path496-0-2-3-4-9-6-4-4" />
    </clipPath>
    <clipPath
       clipPathUnits="userSpaceOnUse"
       id="clipPath498-7-8-4-0-5-8-9-3">
      <path
         d="M 0,1937.121 H 2619.516 V 0 H 0 Z"
         transform="translate(-1290.1041,-1612.8251)"
         id="path498-0-2-7-8-8-9-5-4" />
    </clipPath>
    <clipPath
       clipPathUnits="userSpaceOnUse"
       id="clipPath500-6-3-4-35-9-7-3-4">
      <path
         d="M 0,1937.121 H 2619.516 V 0 H 0 Z"
         transform="translate(-1312.2435,-1497.8516)"
         id="path500-2-0-3-8-2-1-9-0" />
    </clipPath>
    <clipPath
       clipPathUnits="userSpaceOnUse"
       id="clipPath502-8-22-2-3-9-2-0-3">
      <path
         d="M 0,1937.121 H 2619.516 V 0 H 0 Z"
         transform="translate(-1367.8893,-1632.8647)"
         id="path502-3-0-5-3-1-2-8-0" />
    </clipPath>
    <clipPath
       clipPathUnits="userSpaceOnUse"
       id="clipPath504-4-0-2-1-9-6-7-6">
      <path
         d="M 0,1937.121 H 2619.516 V 0 H 0 Z"
         transform="translate(-1378.8286,-1588.1797)"
         id="path504-3-0-7-5-6-9-4-6" />
    </clipPath>
    <clipPath
       clipPathUnits="userSpaceOnUse"
       id="clipPath506-6-2-0-44-4-0-4-8">
      <path
         d="M 0,1937.121 H 2619.516 V 0 H 0 Z"
         transform="translate(-1331.8312,-1751.8124)"
         id="path506-7-0-5-1-1-0-1-0" />
    </clipPath>
    <clipPath
       clipPathUnits="userSpaceOnUse"
       id="clipPath508-1-4-0-5-3-3-4-0">
      <path
         d="M 0,1937.121 H 2619.516 V 0 H 0 Z"
         transform="translate(-1327.3992,-1503.5074)"
         id="path508-4-4-4-3-7-8-6-1" />
    </clipPath>
    <clipPath
       clipPathUnits="userSpaceOnUse"
       id="clipPath508-1-4-0-5-5-5">
      <path
         d="M 0,1937.121 H 2619.516 V 0 H 0 Z"
         transform="translate(-1327.3992,-1503.5074)"
         id="path508-4-4-4-3-4-9" />
    </clipPath>
    <clipPath
       clipPathUnits="userSpaceOnUse"
       id="clipPath508-1-4-0-5-5-5-6">
      <path
         d="M 0,1937.121 H 2619.516 V 0 H 0 Z"
         transform="translate(-1327.3992,-1503.5074)"
         id="path508-4-4-4-3-4-9-7" />
    </clipPath>
    <clipPath
       clipPathUnits="userSpaceOnUse"
       id="clipPath508-1-4-0-5-3-3-4-0-1">
      <path
         d="M 0,1937.121 H 2619.516 V 0 H 0 Z"
         transform="translate(-1327.3992,-1503.5074)"
         id="path508-4-4-4-3-7-8-6-1-3" />
    </clipPath>
    <clipPath
       clipPathUnits="userSpaceOnUse"
       id="clipPath508-1-4-0-5-3-3-4-5">
      <path
         d="M 0,1937.121 H 2619.516 V 0 H 0 Z"
         transform="translate(-1327.3992,-1503.5074)"
         id="path508-4-4-4-3-7-8-6-2" />
    </clipPath>
    <clipPath
       clipPathUnits="userSpaceOnUse"
       id="clipPath508-1-4-0-5-3-3-4-2">
      <path
         d="M 0,1937.121 H 2619.516 V 0 H 0 Z"
         transform="translate(-1327.3992,-1503.5074)"
         id="path508-4-4-4-3-7-8-6-3" />
    </clipPath>
    <clipPath
       clipPathUnits="userSpaceOnUse"
       id="clipPath508-1-4-0-5-3-3-4-2-1">
      <path
         d="M 0,1937.121 H 2619.516 V 0 H 0 Z"
         transform="translate(-1327.3992,-1503.5074)"
         id="path508-4-4-4-3-7-8-6-3-8" />
    </clipPath>
    <clipPath
       clipPathUnits="userSpaceOnUse"
       id="clipPath508-1-4-0-5-3-3-4-2-1-5">
      <path
         d="M 0,1937.121 H 2619.516 V 0 H 0 Z"
         transform="translate(-1327.3992,-1503.5074)"
         id="path508-4-4-4-3-7-8-6-3-8-7" />
    </clipPath>
    <clipPath
       clipPathUnits="userSpaceOnUse"
       id="clipPath508-1-4-0-5-5-5-7">
      <path
         d="M 0,1937.121 H 2619.516 V 0 H 0 Z"
         transform="translate(-1327.3992,-1503.5074)"
         id="path508-4-4-4-3-4-9-72" />
    </clipPath>
    <clipPath
       clipPathUnits="userSpaceOnUse"
       id="clipPath508-1-4-0-5-5-2">
      <path
         d="M 0,1937.121 H 2619.516 V 0 H 0 Z"
         transform="translate(-1327.3992,-1503.5074)"
         id="path508-4-4-4-3-4-1" />
    </clipPath>
    <clipPath
       clipPathUnits="userSpaceOnUse"
       id="clipPath508-1-4-0-5-5-5-7-1">
      <path
         d="M 0,1937.121 H 2619.516 V 0 H 0 Z"
         transform="translate(-1327.3992,-1503.5074)"
         id="path508-4-4-4-3-4-9-72-2" />
    </clipPath>
    <clipPath
       clipPathUnits="userSpaceOnUse"
       id="clipPath494-7-8-5-0-7-1-5">
      <path
         d="M 0,1937.121 H 2619.516 V 0 H 0 Z"
         transform="translate(-1301.3385,-1569.316)"
         id="path494-1-1-9-62-8-8-9" />
    </clipPath>
    <clipPath
       clipPathUnits="userSpaceOnUse"
       id="clipPath496-7-0-5-05-8-0-5">
      <path
         d="M 0,1937.121 H 2619.516 V 0 H 0 Z"
         transform="translate(-1324.299,-1645.6942)"
         id="path496-0-2-3-4-9-6-3" />
    </clipPath>
    <clipPath
       clipPathUnits="userSpaceOnUse"
       id="clipPath498-7-8-4-0-5-8-4">
      <path
         d="M 0,1937.121 H 2619.516 V 0 H 0 Z"
         transform="translate(-1290.1041,-1612.8251)"
         id="path498-0-2-7-8-8-9-0" />
    </clipPath>
    <clipPath
       clipPathUnits="userSpaceOnUse"
       id="clipPath500-6-3-4-35-9-7-7">
      <path
         d="M 0,1937.121 H 2619.516 V 0 H 0 Z"
         transform="translate(-1312.2435,-1497.8516)"
         id="path500-2-0-3-8-2-1-5" />
    </clipPath>
    <clipPath
       clipPathUnits="userSpaceOnUse"
       id="clipPath502-8-22-2-3-9-2-9">
      <path
         d="M 0,1937.121 H 2619.516 V 0 H 0 Z"
         transform="translate(-1367.8893,-1632.8647)"
         id="path502-3-0-5-3-1-2-4" />
    </clipPath>
    <clipPath
       clipPathUnits="userSpaceOnUse"
       id="clipPath504-4-0-2-1-9-6-5">
      <path
         d="M 0,1937.121 H 2619.516 V 0 H 0 Z"
         transform="translate(-1378.8286,-1588.1797)"
         id="path504-3-0-7-5-6-9-0" />
    </clipPath>
    <clipPath
       clipPathUnits="userSpaceOnUse"
       id="clipPath506-6-2-0-44-4-0-0">
      <path
         d="M 0,1937.121 H 2619.516 V 0 H 0 Z"
         transform="translate(-1331.8312,-1751.8124)"
         id="path506-7-0-5-1-1-0-2" />
    </clipPath>
    <clipPath
       clipPathUnits="userSpaceOnUse"
       id="clipPath508-1-4-0-5-5-5-75">
      <path
         d="M 0,1937.121 H 2619.516 V 0 H 0 Z"
         transform="translate(-1327.3992,-1503.5074)"
         id="path508-4-4-4-3-4-9-6" />
    </clipPath>
    <clipPath
       clipPathUnits="userSpaceOnUse"
       id="clipPath508-1-4-0-5-3-3-4-2-1-3">
      <path
         d="M 0,1937.121 H 2619.516 V 0 H 0 Z"
         transform="translate(-1327.3992,-1503.5074)"
         id="path508-4-4-4-3-7-8-6-3-8-1" />
    </clipPath>
    <clipPath
       clipPathUnits="userSpaceOnUse"
       id="clipPath494-7-8-5-0-7-1-58">
      <path
         d="M 0,1937.121 H 2619.516 V 0 H 0 Z"
         transform="translate(-1301.3385,-1569.316)"
         id="path494-1-1-9-62-8-8-86" />
    </clipPath>
    <clipPath
       clipPathUnits="userSpaceOnUse"
       id="clipPath496-7-0-5-05-8-0-58">
      <path
         d="M 0,1937.121 H 2619.516 V 0 H 0 Z"
         transform="translate(-1324.299,-1645.6942)"
         id="path496-0-2-3-4-9-6-1" />
    </clipPath>
    <clipPath
       clipPathUnits="userSpaceOnUse"
       id="clipPath498-7-8-4-0-5-8-5">
      <path
         d="M 0,1937.121 H 2619.516 V 0 H 0 Z"
         transform="translate(-1290.1041,-1612.8251)"
         id="path498-0-2-7-8-8-9-9" />
    </clipPath>
    <clipPath
       clipPathUnits="userSpaceOnUse"
       id="clipPath500-6-3-4-35-9-7-5">
      <path
         d="M 0,1937.121 H 2619.516 V 0 H 0 Z"
         transform="translate(-1312.2435,-1497.8516)"
         id="path500-2-0-3-8-2-1-57" />
    </clipPath>
    <clipPath
       clipPathUnits="userSpaceOnUse"
       id="clipPath502-8-22-2-3-9-2-6">
      <path
         d="M 0,1937.121 H 2619.516 V 0 H 0 Z"
         transform="translate(-1367.8893,-1632.8647)"
         id="path502-3-0-5-3-1-2-86" />
    </clipPath>
    <clipPath
       clipPathUnits="userSpaceOnUse"
       id="clipPath504-4-0-2-1-9-6-4">
      <path
         d="M 0,1937.121 H 2619.516 V 0 H 0 Z"
         transform="translate(-1378.8286,-1588.1797)"
         id="path504-3-0-7-5-6-9-7" />
    </clipPath>
    <clipPath
       clipPathUnits="userSpaceOnUse"
       id="clipPath506-6-2-0-44-4-0-6">
      <path
         d="M 0,1937.121 H 2619.516 V 0 H 0 Z"
         transform="translate(-1331.8312,-1751.8124)"
         id="path506-7-0-5-1-1-0-19" />
    </clipPath>
    <clipPath
       clipPathUnits="userSpaceOnUse"
       id="clipPath494-7-8-5-0-7-1-58-0">
      <path
         d="M 0,1937.121 H 2619.516 V 0 H 0 Z"
         transform="translate(-1301.3385,-1569.316)"
         id="path494-1-1-9-62-8-8-86-0" />
    </clipPath>
    <clipPath
       clipPathUnits="userSpaceOnUse"
       id="clipPath496-7-0-5-05-8-0-58-5">
      <path
         d="M 0,1937.121 H 2619.516 V 0 H 0 Z"
         transform="translate(-1324.299,-1645.6942)"
         id="path496-0-2-3-4-9-6-1-8" />
    </clipPath>
    <clipPath
       clipPathUnits="userSpaceOnUse"
       id="clipPath498-7-8-4-0-5-8-5-0">
      <path
         d="M 0,1937.121 H 2619.516 V 0 H 0 Z"
         transform="translate(-1290.1041,-1612.8251)"
         id="path498-0-2-7-8-8-9-9-8" />
    </clipPath>
    <clipPath
       clipPathUnits="userSpaceOnUse"
       id="clipPath500-6-3-4-35-9-7-5-2">
      <path
         d="M 0,1937.121 H 2619.516 V 0 H 0 Z"
         transform="translate(-1312.2435,-1497.8516)"
         id="path500-2-0-3-8-2-1-57-1" />
    </clipPath>
    <clipPath
       clipPathUnits="userSpaceOnUse"
       id="clipPath502-8-22-2-3-9-2-6-6">
      <path
         d="M 0,1937.121 H 2619.516 V 0 H 0 Z"
         transform="translate(-1367.8893,-1632.8647)"
         id="path502-3-0-5-3-1-2-86-0" />
    </clipPath>
    <clipPath
       clipPathUnits="userSpaceOnUse"
       id="clipPath504-4-0-2-1-9-6-4-7">
      <path
         d="M 0,1937.121 H 2619.516 V 0 H 0 Z"
         transform="translate(-1378.8286,-1588.1797)"
         id="path504-3-0-7-5-6-9-7-6" />
    </clipPath>
    <clipPath
       clipPathUnits="userSpaceOnUse"
       id="clipPath506-6-2-0-44-4-0-6-8">
      <path
         d="M 0,1937.121 H 2619.516 V 0 H 0 Z"
         transform="translate(-1331.8312,-1751.8124)"
         id="path506-7-0-5-1-1-0-19-8" />
    </clipPath>
    <clipPath
       clipPathUnits="userSpaceOnUse"
       id="clipPath508-1-4-0-5-3-3-4-2-1-3-5">
      <path
         d="M 0,1937.121 H 2619.516 V 0 H 0 Z"
         transform="translate(-1327.3992,-1503.5074)"
         id="path508-4-4-4-3-7-8-6-3-8-1-1" />
    </clipPath>
    <clipPath
       clipPathUnits="userSpaceOnUse"
       id="clipPath494-7-8-5-0-7-1-5-1">
      <path
         d="M 0,1937.121 H 2619.516 V 0 H 0 Z"
         transform="translate(-1301.3385,-1569.316)"
         id="path494-1-1-9-62-8-8-9-3" />
    </clipPath>
    <clipPath
       clipPathUnits="userSpaceOnUse"
       id="clipPath496-7-0-5-05-8-0-5-4">
      <path
         d="M 0,1937.121 H 2619.516 V 0 H 0 Z"
         transform="translate(-1324.299,-1645.6942)"
         id="path496-0-2-3-4-9-6-3-4" />
    </clipPath>
    <clipPath
       clipPathUnits="userSpaceOnUse"
       id="clipPath498-7-8-4-0-5-8-4-7">
      <path
         d="M 0,1937.121 H 2619.516 V 0 H 0 Z"
         transform="translate(-1290.1041,-1612.8251)"
         id="path498-0-2-7-8-8-9-0-2" />
    </clipPath>
    <clipPath
       clipPathUnits="userSpaceOnUse"
       id="clipPath500-6-3-4-35-9-7-7-1">
      <path
         d="M 0,1937.121 H 2619.516 V 0 H 0 Z"
         transform="translate(-1312.2435,-1497.8516)"
         id="path500-2-0-3-8-2-1-5-0" />
    </clipPath>
    <clipPath
       clipPathUnits="userSpaceOnUse"
       id="clipPath502-8-22-2-3-9-2-9-3">
      <path
         d="M 0,1937.121 H 2619.516 V 0 H 0 Z"
         transform="translate(-1367.8893,-1632.8647)"
         id="path502-3-0-5-3-1-2-4-7" />
    </clipPath>
    <clipPath
       clipPathUnits="userSpaceOnUse"
       id="clipPath504-4-0-2-1-9-6-5-3">
      <path
         d="M 0,1937.121 H 2619.516 V 0 H 0 Z"
         transform="translate(-1378.8286,-1588.1797)"
         id="path504-3-0-7-5-6-9-0-7" />
    </clipPath>
    <clipPath
       clipPathUnits="userSpaceOnUse"
       id="clipPath506-6-2-0-44-4-0-0-5">
      <path
         d="M 0,1937.121 H 2619.516 V 0 H 0 Z"
         transform="translate(-1331.8312,-1751.8124)"
         id="path506-7-0-5-1-1-0-2-3" />
    </clipPath>
    <clipPath
       clipPathUnits="userSpaceOnUse"
       id="clipPath508-1-4-0-5-5-5-75-7">
      <path
         d="M 0,1937.121 H 2619.516 V 0 H 0 Z"
         transform="translate(-1327.3992,-1503.5074)"
         id="path508-4-4-4-3-4-9-6-2" />
    </clipPath>
    <clipPath
       clipPathUnits="userSpaceOnUse"
       id="clipPath494-7-8-5-0-7-1-58-5">
      <path
         d="M 0,1937.121 H 2619.516 V 0 H 0 Z"
         transform="translate(-1301.3385,-1569.316)"
         id="path494-1-1-9-62-8-8-86-2" />
    </clipPath>
    <clipPath
       clipPathUnits="userSpaceOnUse"
       id="clipPath496-7-0-5-05-8-0-58-2">
      <path
         d="M 0,1937.121 H 2619.516 V 0 H 0 Z"
         transform="translate(-1324.299,-1645.6942)"
         id="path496-0-2-3-4-9-6-1-2" />
    </clipPath>
    <clipPath
       clipPathUnits="userSpaceOnUse"
       id="clipPath498-7-8-4-0-5-8-5-9">
      <path
         d="M 0,1937.121 H 2619.516 V 0 H 0 Z"
         transform="translate(-1290.1041,-1612.8251)"
         id="path498-0-2-7-8-8-9-9-89" />
    </clipPath>
    <clipPath
       clipPathUnits="userSpaceOnUse"
       id="clipPath500-6-3-4-35-9-7-5-0">
      <path
         d="M 0,1937.121 H 2619.516 V 0 H 0 Z"
         transform="translate(-1312.2435,-1497.8516)"
         id="path500-2-0-3-8-2-1-57-12" />
    </clipPath>
    <clipPath
       clipPathUnits="userSpaceOnUse"
       id="clipPath502-8-22-2-3-9-2-6-0">
      <path
         d="M 0,1937.121 H 2619.516 V 0 H 0 Z"
         transform="translate(-1367.8893,-1632.8647)"
         id="path502-3-0-5-3-1-2-86-2" />
    </clipPath>
    <clipPath
       clipPathUnits="userSpaceOnUse"
       id="clipPath504-4-0-2-1-9-6-4-5">
      <path
         d="M 0,1937.121 H 2619.516 V 0 H 0 Z"
         transform="translate(-1378.8286,-1588.1797)"
         id="path504-3-0-7-5-6-9-7-8" />
    </clipPath>
    <clipPath
       clipPathUnits="userSpaceOnUse"
       id="clipPath506-6-2-0-44-4-0-6-1">
      <path
         d="M 0,1937.121 H 2619.516 V 0 H 0 Z"
         transform="translate(-1331.8312,-1751.8124)"
         id="path506-7-0-5-1-1-0-19-3" />
    </clipPath>
  </defs>
  <g
     inkscape:label="Capa 1"
     inkscape:groupmode="layer"
     id="layer1">
    <g
       id="g5"
       transform="matrix(2.7547286,0,0,2.7547286,-62.066914,-428.70687)">
      <path
         id="path124-0-6-94"
         style="fill:#ff0080;fill-opacity:1;stroke-width:2.08151"
         d="m 37.349982,161.34735 c -1.17371,0.15113 -1.99987,1.22146 -1.84875,2.39515 0.13402,1.04091 0.99196,1.80515 2.00295,1.86019 0.12893,0.008 0.25942,0.005 0.39222,-0.0115 0.13274,-0.0171 0.2594,-0.0481 0.38231,-0.0883 0.96406,-0.30944 1.60044,-1.26598 1.46642,-2.30689 -0.15112,-1.17369 -1.22148,-1.99984 -2.39515,-1.84872 z m 0.18662,4.50712 1.08748,8.44618 c -4.59702,0.79987 -7.79582,5.07728 -7.19405,9.75105 0.24981,1.94023 1.12263,3.64338 2.3826,4.9521 l -3.9972,4.23133 c 0.20376,0.16286 0.38761,0.34918 0.55174,0.55365 l 4.01276,-4.24526 c 1.824,1.58509 4.28509,2.42097 6.87035,2.0881 4.80486,-0.61865 8.19859,-5.01535 7.57994,-9.82026 -0.32394,-2.51594 -1.68985,-4.63684 -3.6017,-6.00548 l 2.6316,-3.66832 c -0.23798,-0.11185 -0.46369,-0.24654 -0.67059,-0.40711 l -2.61474,3.64771 c -1.51539,-0.8932 -3.30608,-1.33484 -5.17618,-1.17723 l -1.08748,-8.44617 c -0.12366,0.0372 -0.25068,0.0669 -0.38287,0.084 -0.13212,0.017 -0.26256,0.0212 -0.39166,0.0158 z m 11.42033,-0.0822 c -1.74352,0.22448 -2.97204,1.81614 -2.74755,3.55963 0.11137,0.86496 0.55943,1.60176 1.19531,2.09866 0.20629,0.16127 0.43339,0.29474 0.67418,0.40122 0.51318,0.22697 1.09203,0.3236 1.69,0.24656 1.74349,-0.22448 2.97216,-1.81505 2.74768,-3.55854 -0.22448,-1.74351 -1.81613,-2.97204 -3.55962,-2.74756 z m -9.78889,9.68714 c 1.99594,-0.25698 3.97274,0.27812 5.5658,1.50776 1.59303,1.22961 2.61145,3.00641 2.86843,5.00233 0.25699,1.99593 -0.27814,3.97274 -1.50774,5.56578 -1.22963,1.59307 -3.0064,2.61146 -5.00235,2.86845 -1.99592,0.25698 -3.97273,-0.27811 -5.56578,-1.50775 -1.59307,-1.22961 -2.61147,-3.00641 -2.86845,-5.00234 -0.25698,-1.99592 0.27812,-3.97272 1.50776,-5.56577 1.22955,-1.59307 3.0064,-2.61148 5.00233,-2.86846 z m 0.17774,1.38051 c -1.8364,0.23645 -3.38279,1.25781 -4.34741,2.68214 l 2.46265,3.10571 2.49031,-5.83547 c -0.20037,0.006 -0.40262,0.0214 -0.60556,0.0476 z m 1.40856,-0.0187 -1.55446,3.6446 6.17914,-0.79559 c -1.01095,-1.58582 -2.71238,-2.65865 -4.62468,-2.84901 z m -6.16354,3.39319 c -0.53847,1.06906 -0.7748,2.30445 -0.61078,3.57842 0.0815,0.63314 0.25592,1.23131 0.50838,1.78364 l 3.94945,-0.50852 z m 7.23323,0.66943 3.80863,5.00169 c 0.57587,-1.09228 0.8344,-2.36381 0.66511,-3.67867 -0.0838,-0.65074 -0.26685,-1.26566 -0.5307,-1.83069 z m 0.96857,2.51071 -2.40491,5.8082 c 0.18049,-0.006 0.36179,-0.0204 0.54419,-0.044 1.79468,-0.23108 3.31203,-1.21183 4.28067,-2.58573 z m -7.92134,2.88963 c 1.04858,1.67606 2.86263,2.78937 4.88881,2.9126 l -0.15584,-0.0645 1.51229,-3.65217 z m -7.67651,6.56826 c -1.7435,0.22448 -2.97231,1.81399 -2.74782,3.5575 0.22448,1.74351 1.81599,2.97097 3.55949,2.74649 1.74348,-0.22448 2.97215,-1.81506 2.74767,-3.55856 -0.0751,-0.58302 -0.30636,-1.10641 -0.6417,-1.53876 -0.16105,-0.20764 -0.3443,-0.39505 -0.54986,-0.55605 -0.64637,-0.50621 -1.4873,-0.76399 -2.36778,-0.65062 z" />
      <path
         style="color:#000000;fill:#ff0080;fill-opacity:1;fill-rule:evenodd;stroke:none;stroke-width:2.53123;stroke-linecap:square;stroke-opacity:1;-inkscape-stroke:none"
         d="m 52.427002,191.56616 v 0.70697 4.56313 h -4.7065 -0.70697 v 1.41888 h 0.70697 6.12538 v -5.98201 -0.70697 z"
         id="path125-1-5" />
      <path
         style="color:#000000;fill:#ff0080;fill-opacity:1;fill-rule:evenodd;stroke:none;stroke-width:2.53123;stroke-linecap:square;stroke-opacity:1;-inkscape-stroke:none"
         d="m 24.874682,168.47461 v 5.98201 0.70697 h 1.41887 v -0.70697 -4.56313 h 4.70157 0.71191 v -1.41888 h -0.71191 z"
         id="path125-6-6-0" />
      <path
         id="path507-3-7-9-3-6-0-2-2-8-0"
         d="m 0,0 c 7.863,-9.877 15.722,-19.749 23.604,-29.65 -3.009,-5.727 -7.939,-9.24 -13.641,-11.842 -0.372,-0.17 -1.081,-0.019 -1.434,0.247 -9.494,7.16 -18.993,14.314 -28.422,21.559 -5.442,4.18 -9.249,9.832 -13.305,15.249 -4.873,6.51 -9.802,12.979 -14.632,19.521 -0.4,0.542 -0.544,1.668 -0.26,2.259 2.181,4.534 5.063,8.562 8.828,11.965 1.159,1.048 2.039,1.342 3.311,0.338 5.629,-4.441 11.277,-8.856 16.93,-13.265 4.025,-3.138 8.069,-6.251 12.262,-9.497 0.816,1.026 1.328,1.637 1.806,2.274 11.359,15.15 22.699,30.313 34.095,45.434 0.947,1.257 1.173,2.088 0.152,3.504 -14.701,20.408 -29.326,40.871 -43.979,61.313 -4.38,6.111 -8.771,12.214 -13.212,18.281 -0.701,0.958 -0.794,1.681 -0.169,2.711 2.549,4.203 5.02,8.453 7.524,12.682 0.139,0.234 0.319,0.445 0.484,0.662 4.608,6.064 8.382,6.926 14.366,2.214 7.133,-5.617 13.882,-11.734 20.668,-17.779 11.587,-10.323 23.08,-20.751 34.6,-31.149 5.262,-4.75 11.234,-8.189 18.094,-10.075 1.297,-0.356 2.114,-0.211 3.156,0.859 6.473,6.647 13.847,12.173 21.816,16.903 1.046,0.621 2.22,1.069 3.388,1.421 0.605,0.182 1.549,0.241 1.957,-0.101 1.637,-1.371 3.225,-0.7 4.821,-0.118 1.986,0.724 3.893,1.702 5.92,2.263 2.394,0.664 3.305,-0.33 2.538,-2.685 -0.696,-2.137 -1.688,-4.175 -2.46,-6.29 -0.52,-1.426 -0.951,-2.873 0.624,-4.083 0.312,-0.24 0.378,-1.169 0.189,-1.628 -0.801,-1.946 -1.453,-4.048 -2.681,-5.706 C 102.547,91.867 97.917,86.12 93.426,80.268 88.881,74.344 88.515,76.25 92.294,68.9 96.886,59.968 103.338,52.287 110.035,44.877 120.85,32.911 131.869,21.13 142.719,9.196 c 2.614,-2.875 5.104,-5.907 7.3,-9.107 3.229,-4.704 2.751,-8.12 -1.723,-11.561 -3.726,-2.866 -7.747,-5.362 -11.728,-7.877 -2.447,-1.545 -5.091,-1.49 -7.588,0.005 -1.931,1.157 -3.827,2.386 -5.655,3.699 C 99.57,1.425 75.812,18.491 52.118,35.646 50.097,37.11 48.827,36.976 46.885,35.499 31.651,23.914 16.32,12.456 1.021,0.956 0.808,0.796 0.628,0.591 0,0"
         style="fill:#183d68;fill-opacity:1;fill-rule:nonzero;stroke:none"
         transform="matrix(0.10406566,0,0,-0.10406566,54.738042,187.74841)"
         clip-path="url(#clipPath508-1-4-0-5-3-3-4-2-1-3)" />
    </g>
  </g>
</svg>
